name C:\Users\antoi\Documents\MyRepositories\upper-imu-dc\Results\main_tracking\Case_69\FLX01_linearAccelerations_groundFrame.mot
datacolumns 4
datarows 70
range 5.01000000 5.70000000
endheader 
time	radius_imu_x	radius_imu_y	radius_imu_z	
          5.01000000	         -0.60234731	         10.05211127	         -1.63860902	
          5.02000000	         -0.48299443	         10.29651725	         -1.73230982	
          5.03000000	         -0.37375512	         10.49961192	         -1.78142707	
          5.04000000	         -0.27678336	         10.66270522	         -1.79336810	
          5.05000000	         -0.19400630	         10.78761004	         -1.77538300	
          5.06000000	         -0.12695583	         10.87669534	         -1.73423562	
          5.07000000	         -0.07667227	         10.93289106	         -1.67574830	
          5.08000000	         -0.04365165	         10.95958659	         -1.60440471	
          5.09000000	         -0.02787878	         10.96047239	         -1.52330758	
          5.10000000	         -0.02879594	         10.93935720	         -1.43447729	
          5.11000000	         -0.04526859	         10.90006215	         -1.33954621	
          5.12000000	         -0.07559575	         10.84639871	         -1.24034986	
          5.13000000	         -0.11743576	         10.78225828	         -1.13931131	
          5.14000000	         -0.16815624	         10.71131257	         -1.03893288	
          5.15000000	         -0.22445867	         10.63762247	         -0.94191033	
          5.16000000	         -0.28297318	         10.56583130	         -0.84888477	
          5.17000000	         -0.34050908	         10.50173119	         -0.75969444	
          5.18000000	         -0.39439132	         10.44906200	         -0.67797668	
          5.19000000	         -0.44184730	         10.40815247	         -0.60300124	
          5.20000000	         -0.48069028	         10.37656045	         -0.53256784	
          5.21000000	         -0.51049827	         10.35326023	         -0.46574799	
          5.22000000	         -0.53084959	         10.33987452	         -0.40577522	
          5.23000000	         -0.54080219	         10.33899823	         -0.35157349	
          5.24000000	         -0.54093236	         10.34972247	         -0.30189710	
          5.25000000	         -0.53319476	         10.37066745	         -0.25497299	
          5.26000000	         -0.51968063	         10.39932443	         -0.20982144	
          5.27000000	         -0.50309542	         10.43336667	         -0.16471213	
          5.28000000	         -0.48614806	         10.47025728	         -0.11790009	
          5.29000000	         -0.47141305	         10.50750789	         -0.06781325	
          5.30000000	         -0.46089198	         10.54309430	         -0.01382406	
          5.31000000	         -0.45587671	         10.57546112	          0.04422459	
          5.32000000	         -0.45704104	         10.60362707	          0.10585426	
          5.33000000	         -0.46419664	         10.62722399	          0.17002602	
          5.34000000	         -0.47620112	         10.64644242	          0.23513887	
          5.35000000	         -0.49254093	         10.66156982	          0.30091848	
          5.36000000	         -0.51368323	         10.67207488	          0.36786305	
          5.37000000	         -0.53686089	         10.67895244	          0.43322624	
          5.38000000	         -0.56007847	         10.68200635	          0.49429943	
          5.39000000	         -0.58779287	         10.68071476	          0.55677695	
          5.40000000	         -0.61914420	         10.67467185	          0.61800799	
          5.41000000	         -0.65038945	         10.66426068	          0.67177798	
          5.42000000	         -0.68640768	         10.64817150	          0.72176268	
          5.43000000	         -0.72481015	         10.62690255	          0.76285013	
          5.44000000	         -0.76500056	         10.60086724	          0.79272810	
          5.45000000	         -0.80599024	         10.57061700	          0.80873877	
          5.46000000	         -0.85168954	         10.53620153	          0.81408969	
          5.47000000	         -0.89723686	         10.49945068	          0.80377767	
          5.48000000	         -0.94286005	         10.46110650	          0.77855624	
          5.49000000	         -0.98839678	         10.42182533	          0.73880147	
          5.50000000	         -1.03222092	         10.38285854	          0.68457267	
          5.51000000	         -1.07282554	         10.34541748	          0.61617878	
          5.52000000	         -1.10806595	         10.31092523	          0.53385410	
          5.53000000	         -1.13560108	         10.28076008	          0.43810611	
          5.54000000	         -1.15295820	         10.25621004	          0.32957113	
          5.55000000	         -1.15776267	         10.23826180	          0.20927101	
          5.56000000	         -1.14817207	         10.22750525	          0.07886184	
          5.57000000	         -1.12280699	         10.22411957	         -0.05942743	
          5.58000000	         -1.08104203	         10.22789244	         -0.20269141	
          5.59000000	         -1.02302580	         10.23829021	         -0.34740970	
          5.60000000	         -0.94955803	         10.25457736	         -0.48968315	
          5.61000000	         -0.86194387	         10.27593292	         -0.62550632	
          5.62000000	         -0.76190586	         10.30151299	         -0.75107502	
          5.63000000	         -0.65152449	         10.33048811	         -0.86302822	
          5.64000000	         -0.53322371	         10.36199741	         -0.95869722	
          5.65000000	         -0.40967542	         10.39502265	         -1.03644194	
          5.66000000	         -0.28357190	         10.42841996	         -1.09581085	
          5.67000000	         -0.15734053	         10.46093992	         -1.13770822	
          5.68000000	         -0.03276776	         10.49137349	         -1.16424246	
          5.69000000	          0.08908555	         10.51867338	         -1.17836129	
          5.70000000	          0.20787822	         10.54207019	         -1.18328863	
